<svg width="29" height="31" viewBox="0 0 29 31" fill="none" xmlns="http://www.w3.org/2000/svg">
<g clip-path="url(#clip0_102_3764)" filter="url(#filter0_d_102_3764)">
<path d="M20.031 16.6168L24.314 20.8988L22.899 22.3138L18.617 18.0308C17.0237 19.308 15.042 20.0027 13 19.9998C8.032 19.9998 4 15.9678 4 10.9998C4 6.03176 8.032 1.99976 13 1.99976C17.968 1.99976 22 6.03176 22 10.9998C22.0029 13.0418 21.3082 15.0235 20.031 16.6168ZM18.025 15.8748C19.2941 14.5696 20.0029 12.8202 20 10.9998C20 7.13176 16.867 3.99976 13 3.99976C9.132 3.99976 6 7.13176 6 10.9998C6 14.8668 9.132 17.9998 13 17.9998C14.8204 18.0026 16.5699 17.2939 17.875 16.0248L18.025 15.8748Z" fill="#333333"/>
</g>
<defs>
<filter id="filter0_d_102_3764" x="-2" y="0" width="32" height="32" filterUnits="userSpaceOnUse" color-interpolation-filters="sRGB">
<feFlood flood-opacity="0" result="BackgroundImageFix"/>
<feColorMatrix in="SourceAlpha" type="matrix" values="0 0 0 0 0 0 0 0 0 0 0 0 0 0 0 0 0 0 127 0" result="hardAlpha"/>
<feOffset dy="4"/>
<feGaussianBlur stdDeviation="2"/>
<feComposite in2="hardAlpha" operator="out"/>
<feColorMatrix type="matrix" values="0 0 0 0 0 0 0 0 0 0 0 0 0 0 0 0 0 0 0.25 0"/>
<feBlend mode="normal" in2="BackgroundImageFix" result="effect1_dropShadow_102_3764"/>
<feBlend mode="normal" in="SourceGraphic" in2="effect1_dropShadow_102_3764" result="shape"/>
</filter>
<clipPath id="clip0_102_3764">
<rect width="24" height="24" fill="white" transform="translate(2)"/>
</clipPath>
</defs>
</svg>
