<svg width="16" height="17" viewBox="0 0 16 17" fill="none" xmlns="http://www.w3.org/2000/svg">
<g clip-path="url(#clip0_102_5816)">
<path d="M8.00065 3.74384C9.5275 2.37299 11.887 2.41849 13.358 3.89204C14.8283 5.36624 14.879 7.71404 13.5114 9.24544L7.99935 14.7652L2.48865 9.24544C1.12105 7.71404 1.1724 5.36234 2.64205 3.89204C4.1143 2.42044 6.46925 2.37104 8.00065 3.74384ZM12.4376 4.81049C11.4626 3.83419 9.88955 3.79454 8.86905 4.71104L8.0013 5.48974L7.1329 4.71169C6.10915 3.79389 4.5394 3.83419 3.5618 4.81179C2.5933 5.78029 2.54455 7.33054 3.437 8.35494L8 12.9251L12.563 8.35559C13.4561 7.33054 13.4074 5.78224 12.4376 4.81049Z" fill="#333333"/>
</g>
<defs>
<clipPath id="clip0_102_5816">
<rect width="15.6" height="15.6" fill="white" transform="translate(0.199219 0.796875)"/>
</clipPath>
</defs>
</svg>
