<svg width="20" height="20" viewBox="0 0 20 20" fill="none" xmlns="http://www.w3.org/2000/svg">
<g clip-path="url(#clip0_102_5788)">
<path d="M3.33594 18.3359C3.33594 16.5678 4.03832 14.8721 5.28856 13.6219C6.5388 12.3716 8.23449 11.6693 10.0026 11.6693C11.7707 11.6693 13.4664 12.3716 14.7166 13.6219C15.9669 14.8721 16.6693 16.5678 16.6693 18.3359H15.0026C15.0026 17.0099 14.4758 15.7381 13.5381 14.8004C12.6005 13.8627 11.3287 13.3359 10.0026 13.3359C8.67652 13.3359 7.40475 13.8627 6.46707 14.8004C5.52939 15.7381 5.0026 17.0099 5.0026 18.3359H3.33594ZM10.0026 10.8359C7.2401 10.8359 5.0026 8.59844 5.0026 5.83594C5.0026 3.07344 7.2401 0.835938 10.0026 0.835938C12.7651 0.835938 15.0026 3.07344 15.0026 5.83594C15.0026 8.59844 12.7651 10.8359 10.0026 10.8359ZM10.0026 9.16927C11.8443 9.16927 13.3359 7.6776 13.3359 5.83594C13.3359 3.99427 11.8443 2.5026 10.0026 2.5026C8.16094 2.5026 6.66927 3.99427 6.66927 5.83594C6.66927 7.6776 8.16094 9.16927 10.0026 9.16927Z" fill="#727488"/>
</g>
<defs>
<clipPath id="clip0_102_5788">
<rect width="20" height="20" fill="white"/>
</clipPath>
</defs>
</svg>
