<svg width="27" height="26" viewBox="0 0 27 26" fill="none" xmlns="http://www.w3.org/2000/svg">
<g clip-path="url(#clip0_102_4533)">
<path d="M13.3799 9.50675C12.5394 9.50675 11.7334 9.84063 11.139 10.4349C10.5447 11.0293 10.2108 11.8353 10.2108 12.6758C10.2108 13.5163 10.5447 14.3223 11.139 14.9167C11.7334 15.511 12.5394 15.8448 13.3799 15.8448C14.2204 15.8448 15.0264 15.511 15.6208 14.9167C16.2151 14.3223 16.5489 13.5163 16.5489 12.6758C16.5489 11.8353 16.2151 11.0293 15.6208 10.4349C15.0264 9.84063 14.2204 9.50675 13.3799 9.50675ZM13.3799 7.39405C14.7807 7.39405 16.1241 7.95052 17.1147 8.94104C18.1052 9.93156 18.6616 11.275 18.6616 12.6758C18.6616 14.0766 18.1052 15.42 17.1147 16.4106C16.1241 17.4011 14.7807 17.9575 13.3799 17.9575C11.9791 17.9575 10.6357 17.4011 9.64514 16.4106C8.65462 15.42 8.09815 14.0766 8.09815 12.6758C8.09815 11.275 8.65462 9.93156 9.64514 8.94104C10.6357 7.95052 11.9791 7.39405 13.3799 7.39405ZM20.2462 7.12996C20.2462 7.48016 20.107 7.81602 19.8594 8.06365C19.6118 8.31128 19.2759 8.4504 18.9257 8.4504C18.5755 8.4504 18.2397 8.31128 17.992 8.06365C17.7444 7.81602 17.6053 7.48016 17.6053 7.12996C17.6053 6.77976 17.7444 6.4439 17.992 6.19627C18.2397 5.94864 18.5755 5.80953 18.9257 5.80953C19.2759 5.80953 19.6118 5.94864 19.8594 6.19627C20.107 6.4439 20.2462 6.77976 20.2462 7.12996ZM13.3799 4.225C10.7665 4.225 10.3397 4.2324 9.12387 4.28627C8.29569 4.32536 7.74005 4.43627 7.22455 4.63698C6.7661 4.81445 6.43546 5.02677 6.08369 5.37959C5.75306 5.69903 5.49885 6.08902 5.34002 6.52045C5.13932 7.03806 5.0284 7.59264 4.99037 8.41977C4.93544 9.58598 4.9291 9.99373 4.9291 12.6758C4.9291 15.2892 4.9365 15.716 4.99037 16.9318C5.02946 17.7589 5.14037 18.3156 5.34002 18.8301C5.5196 19.2896 5.73087 19.6202 6.08158 19.9709C6.43757 20.3259 6.76821 20.5382 7.22244 20.7136C7.74427 20.9153 8.29991 21.0273 9.12387 21.0653C10.2901 21.1203 10.6978 21.1266 13.3799 21.1266C15.9933 21.1266 16.4201 21.1192 17.6359 21.0653C18.462 21.0262 19.0187 20.9153 19.5342 20.7157C19.9916 20.5371 20.3243 20.3248 20.675 19.9741C21.031 19.6181 21.2434 19.2875 21.4187 18.8333C21.6194 18.3125 21.7314 17.7558 21.7694 16.9318C21.8244 15.7656 21.8307 15.3579 21.8307 12.6758C21.8307 10.0624 21.8233 9.63562 21.7694 8.41977C21.7303 7.5937 21.6194 7.03595 21.4187 6.52045C21.2595 6.08946 21.0058 5.69962 20.6761 5.37959C20.3568 5.04879 19.9668 4.79455 19.5352 4.63592C19.0176 4.43522 18.462 4.3243 17.6359 4.28627C16.4697 4.23134 16.062 4.225 13.3799 4.225ZM13.3799 2.1123C16.25 2.1123 16.6081 2.12287 17.7342 2.17569C18.8592 2.2285 19.625 2.40491 20.299 2.66689C20.9962 2.9352 21.5835 3.29858 22.1708 3.88486C22.708 4.41292 23.1236 5.05169 23.3888 5.75671C23.6497 6.4296 23.8272 7.19651 23.88 8.32152C23.9297 9.44759 23.9434 9.8057 23.9434 12.6758C23.9434 15.5459 23.9328 15.904 23.88 17.0301C23.8272 18.1551 23.6497 18.9209 23.3888 19.5949C23.1244 20.3003 22.7086 20.9392 22.1708 21.4667C21.6426 22.0037 21.0039 22.4193 20.299 22.6847C19.6261 22.9456 18.8592 23.1231 17.7342 23.1759C16.6081 23.2256 16.25 23.2393 13.3799 23.2393C10.5098 23.2393 10.1517 23.2287 9.02563 23.1759C7.90061 23.1231 7.13476 22.9456 6.46081 22.6847C5.75551 22.4201 5.11664 22.0044 4.58896 21.4667C4.05171 20.9388 3.63606 20.3 3.37099 19.5949C3.10902 18.922 2.9326 18.1551 2.87979 17.0301C2.83014 15.904 2.81641 15.5459 2.81641 12.6758C2.81641 9.8057 2.82697 9.44759 2.87979 8.32152C2.9326 7.19546 3.10902 6.43066 3.37099 5.75671C3.63533 5.05126 4.05107 4.41232 4.58896 3.88486C5.11679 3.34742 5.75562 2.93175 6.46081 2.66689C7.13476 2.40491 7.89956 2.2285 9.02563 2.17569C10.1517 2.12604 10.5098 2.1123 13.3799 2.1123Z" fill="#C0C2D7"/>
</g>
<defs>
<clipPath id="clip0_102_4533">
<rect width="25.3524" height="25.3524" fill="white" transform="translate(0.705078)"/>
</clipPath>
</defs>
</svg>
